# AST/ASF file generated using VICON BodyLanguage
# -----------------------------------------------
:version 1.10
:name VICON
:units
  mass 1.0
  length 0.45
  angle deg
:documentation
   .ast/.asf automatically generated from VICON data using
   VICON BodyBuilder and BodyLanguage model FoxedUp or BRILLIANT.MOD
:root
   order TX TY TZ RX RY RZ
   axis XYZ
   position 0 0 0  
   orientation 0 0 0 
:bonedata
  begin
     id 1 
     name lhipjoint
     direction 0.707368 -0.647095 0.284426 
     length 2.60678 
     axis 0 0 0  XYZ
  end
  begin
     id 2 
     name lfemur
     direction 0.34202 -0.939693 0  
     length 6.63812  
     axis 0 0 20  XYZ
    dof rx ry rz
    limits (-160.0 20.0)
           (-70.0 70.0)
           (-60.0 70.0)
  end
  begin
     id 3 
     name ltibia
     direction 0.34202 -0.939693 0   
     length 7.51178   
     axis 0 0 20   XYZ
    dof rx
    limits (-10.0 170.0)
  end
  begin
     id 4 
     name lfoot
     direction 0.121251 -0.333133 0.935051   
     length 1.83716   
     axis -90 7.62852e-016 20   XYZ
    dof rx rz
    limits (-45.0 90.0)
           (-70.0 20.0)
  end
  begin
     id 5 
     name ltoes
     direction 1.53611e-011 -4.21962e-011 1   
     length 0.916133   
     axis -90 7.62852e-016 20   XYZ
    dof rx
    limits (-90.0 20.0)
  end
  begin
     id 6 
     name rhipjoint
     direction -0.692419 -0.660507 0.290321   
     length 2.55385  
     axis 0 0 0  XYZ 
  end
  begin
     id 7 
     name rfemur
     direction -0.34202 -0.939693 0   
     length 7.29079   
     axis 0 0 -20   XYZ
    dof rx ry rz
    limits (-160.0 20.0)
           (-70.0 70.0)
           (-70.0 60.0)
  end
  begin
     id 8 
     name rtibia
     direction -0.34202 -0.939693 0   
     length 7.47143   
     axis 0 0 -20   XYZ
    dof rx
    limits (-10.0 170.0)
 end
 begin
     id 9 
     name rfoot
     direction -0.119907 -0.329441 0.936532   
     length 1.79439  
     axis -90 -7.62852e-016 -20   XYZ
    dof rx rz
    limits (-45.0 90.0)
           (-20.0 70.0)
  end
  begin
     id 10 
     name rtoes
     direction -1.53571e-011 -4.21961e-011 1   
     length 0.896039   
     axis -90 -7.62852e-016 -20   XYZ
    dof rx
    limits (-90.0 20.0)
  end
  begin
     id 11 
     name lowerback
     direction 0.0367721 0.992912 -0.113016   
     length 1.73542   
     axis 0 0 0   XYZ
    dof rx ry rz
    limits (-20.0 45.0)
           (-30.0 30.0)
           (-30.0 30.0)
  end
  begin
     id 12 
     name upperback
     direction -0.000314626 0.990678 0.136227   
     length 1.7514   
     axis 0 0 0   XYZ
    dof rx ry rz
    limits (-20.0 45.0)
           (-30.0 30.0)
           (-30.0 30.0)
  end
  begin
     id 13 
     name thorax
     direction -0.0226159 0.981151 0.191917   
     length 1.71471   
     axis 0 0 0   XYZ
    dof rx ry rz
    limits (-20.0 45.0)
           (-30.0 30.0)
           (-30.0 30.0)
  end
  begin
     id 14 
     name lowerneck
     direction 0.0219333 0.998071 0.0580739   
     length 1.65882   
     axis 0 0 0   XYZ
    dof rx ry rz
    limits (-20.0 45.0)
           (-30.0 30.0)
           (-30.0 30.0)
  end
  begin
     id 15 
     name upperneck
     direction 0.0384529 0.980058 -0.194957   
     length 1.6612   
     axis 0 0 0   XYZ
    dof rx ry rz
    limits (-20.0 45.0)
           (-30.0 30.0)
           (-30.0 30.0)
  end
  begin
     id 16
     name head
     direction 0.00592123 0.997421 -0.0715234  
     length 1.68077  
     axis 0 0 0   XYZ
    dof rx ry rz
    limits (-20.0 45.0)
           (-30.0 30.0)
           (-30.0 30.0)
  end
  begin
     id 17 
     name lclavicle
     direction 0.904803 0.417826 0.0821728  
     length 3.42227  
     axis 0 0 0   XYZ
    dof ry rz
    limits (-20.0 10.0)
           (0.0 20.0)
  end
  begin
     id 18 
     name lhumerus
     direction 1 -4.48965e-011 -2.68786e-027   
     length 5.11878   
     axis -180 -30 -90   XYZ
    dof rx ry rz
    limits (-60.0 90.0)
           (-90.0 90.0)
           (-90.0 90.0)
  end
  begin
     id 19
     name lradius
     direction 1 -4.48965e-011 2.61168e-028   
     length 3.59971   
     axis -180 -30 -90   XYZ
    dof rx
    limits (-10.0 170.0)
  end
  begin
     id 20
     name lwrist
     direction 1 -4.48965e-011 1.58672e-027   
     length 1.79985   
     axis -1.65735e-015 90 90   XYZ
    dof ry
    limits (-180.0 0.0)
 end
  begin
     id 21 
     name lhand
     direction 1 -4.48942e-011 3.17344e-027   
     length 0.62877   
     axis -2.02492e-015 90 90   XYZ
    dof rx rz
    limits (-90.0 90.0)
           (-45.0 45.0)
  end
  begin
     id 22 
     name lfingers
     direction 1 -4.49011e-011 6.34687e-027   
     length 0.506931   
     axis -4.04985e-015 90 90   XYZ
    dof rx
    limits (0.0 90.0)
  end
  begin
     id 23
     name lthumb
     direction 0.707107 -6.34982e-011 0.707107   
     length 0.727854   
     axis -90 45 2.85299e-015   XYZ
    dof rx rz
    limits (-45.0 45.0)
           (-45.0 45.0)
  end
  begin
     id 24 
     name rclavicle
     direction -0.945647 0.32488 0.0143075   
     length 3.52737  
     axis 0 0 0   XYZ 
    dof ry rz
    limits (-10.0 20.0)
           (-20.0 0.0)
  end
  begin
     id 25 
     name rhumerus
     direction -1 -4.48962e-011 1.92182e-027  
     length 5.4902   
     axis -180 30 90   XYZ
    dof rx ry rz
    limits (-90.0 60.0)
           (-90.0 90.0)
           (-90.0 90.0)
  end
  begin
     id 26 
     name rradius
     direction -1 -4.48967e-011 -5.97193e-028   
     length 3.20659   
     axis -180 30 90   XYZ
    dof rx
    limits (-10.0 170.0)
  end
  begin
     id 27 
     name rwrist
     direction -1 -4.48964e-011 1.58672e-027   
     length 1.6033   
     axis -1.65735e-015 -90 -90   XYZ
    dof ry
    limits (-180.0 0.0)
  end
  begin
     id 28
     name rhand
     direction -1 -4.49006e-011 3.17344e-027   
     length 0.691885   
     axis -2.02492e-015 -90 -90   XYZ
    dof rx rz
    limits (-90.0 90.0)
           (-45.0 45.0)
  end
  begin
     id 29
     name rfingers
     direction -1 -4.48908e-011 6.34687e-027   
     length 0.557815   
     axis -4.04985e-015 -90 -90   XYZ
    dof rx
    limits (0.0 90.0)
  end
  begin
     id 30
     name rthumb
     direction -0.707107 -6.34999e-011 0.707107   
     length 0.800915   
     axis -90 -45 -2.85299e-015   XYZ
    dof rx rz
    limits (-45.0 45.0)
           (-45.0 45.0)
  end
:hierarchy
  begin
    root lhipjoint rhipjoint lowerback
    lhipjoint lfemur
    lfemur ltibia
    ltibia lfoot
    lfoot ltoes
    rhipjoint rfemur
    rfemur rtibia
    rtibia rfoot
    rfoot rtoes
    lowerback upperback
    upperback thorax
    thorax lowerneck lclavicle rclavicle
    lowerneck upperneck
    upperneck head
    lclavicle lhumerus
    lhumerus lradius
    lradius lwrist
    lwrist lhand lthumb
    lhand lfingers
    rclavicle rhumerus
    rhumerus rradius
    rradius rwrist
    rwrist rhand rthumb
    rhand rfingers
  end

#!OML:ASF I:\Actors\actors\Patient Classification 1\Patient 1\Session 1\Subject1.ASF
:FULLY-SPECIFIED
:DEGREES
1
root -0.013313 17.5179 8.1737 8.63938 -3.24879 -6.32043
lowerback 0.504211 0.37875 2.27691
upperback -10.8674 0.828846 1.75003
thorax -11.9344 0.284095 0.534079
lowerneck -7.52531 -11.4726 -10.1618
upperneck 25.6233 -17.4331 9.7172
head 11.3239 -8.05012 2.88371
rclavicle 5.41688e-015 -3.69739e-014
rhumerus -52.1205 -40.0082 -52.5374
rradius 22.4332
rwrist 53.8665
rhand 10.164 -31.0379
rfingers 7.12502
rthumb 35.2819 -57.5277
lclavicle 5.41688e-015 -3.69739e-014
lhumerus -48.8701 30.1735 66.0312
lradius 21.6171
lwrist -33.3263
lhand -16.7615 -10.4968
lfingers 7.12502
lthumb 9.46543 19.2706
rfemur -4.3457 26.248 20.7992
rtibia 1.751
rfoot -11.55 -26.1318
rtoes 0.20101
lfemur 6.95299 -47.9594 -16.0899
ltibia -4.27959
lfoot -37.1174 58.1656
ltoes 23.1921
2
root -0.0115751 17.5173 8.17336 8.66179 -3.2312 -6.36404
lowerback 0.466164 0.371378 2.33579
upperback -10.8582 0.823403 1.77318
thorax -11.9005 0.277354 0.526919
lowerneck -7.52689 -11.4618 -10.2068
upperneck 25.6518 -17.4345 9.78811
head 11.3475 -8.0466 2.91532
rclavicle -4.32357e-015 1.78906e-015
rhumerus -52.1605 -40.1113 -52.44
rradius 22.4181
rwrist 54.0268
rhand 10.1995 -30.9837
rfingers 7.12502
rthumb 35.3156 -57.4654
lclavicle -4.32357e-015 1.78906e-015
lhumerus -48.9082 30.2771 65.9714
lradius 21.5832
lwrist -33.3634
lhand -17.0087 -10.5694
lfingers 7.12502
lthumb 9.22695 19.2087
rfemur -4.37654 26.0261 20.8296
rtibia 1.73317
rfoot -11.4194 -25.9859
rtoes -0.247916
lfemur 6.93354 -47.9167 -16.0257
ltibia -4.30244
lfoot -37.0193 58.1612
ltoes 23.0309
3
root -0.0093131 17.5168 8.17388 8.6546 -3.20472 -6.38315
lowerback 0.467294 0.363063 2.39294
upperback -10.8484 0.817275 1.78764
thorax -11.8896 0.269768 0.511273
lowerneck -7.55672 -11.4647 -10.2592
upperneck 25.6674 -17.4401 9.82349
head 11.3693 -8.0483 2.93283
rclavicle 1.98785e-016 1.55052e-014
rhumerus -52.1768 -40.1936 -52.3356
rradius 22.3576
rwrist 54.1924
rhand 10.2491 -31.0441
rfingers 7.12502
rthumb 35.3626 -57.5147
lclavicle 1.98785e-016 1.55052e-014
lhumerus -48.9746 30.4712 65.8269
lradius 21.5193
lwrist -33.4912
lhand -17.3132 -10.6824
lfingers 7.12502
lthumb 8.9331 19.1084
rfemur -4.34917 25.8985 20.8537
rtibia 1.70467
rfoot -11.369 -25.9082
rtoes -0.338115
lfemur 6.93565 -47.8743 -16.0215
ltibia -4.29342
lfoot -36.822 58.1522
ltoes 22.8799
4
root -0.00695253 17.5161 8.17346 8.63247 -3.18035 -6.41643
lowerback 0.495776 0.360605 2.47015
upperback -10.8433 0.821014 1.79427
thorax -11.9009 0.264344 0.47491
lowerneck -7.5399 -11.4657 -10.298
upperneck 25.6436 -17.4443 9.86194
head 11.3655 -8.05096 2.95273
rclavicle 2.83268e-015 -1.72943e-014
rhumerus -52.2115 -40.2851 -52.2296
rradius 22.2827
rwrist 54.2899
rhand 10.1914 -31.0825
rfingers 7.12502
rthumb 35.3078 -57.5661
lclavicle 2.83268e-015 -1.72943e-014
lhumerus -49.0537 30.648 65.6623
lradius 21.4775
lwrist -33.6433
lhand -17.5047 -10.8077
lfingers 7.12502
lthumb 8.74831 18.991
rfemur -4.30464 25.8185 20.9046
rtibia 1.68475
rfoot -11.3631 -25.8539
rtoes -0.353552
lfemur 6.987 -47.9101 -16.0427
ltibia -4.27994
lfoot -36.8897 58.1495
ltoes 22.9496
5
root -0.00807589 17.5175 8.17938 8.70129 -3.08002 -6.4966
lowerback 0.528261 0.371417 2.61926
upperback -10.9925 0.848535 1.75479
thorax -12.0941 0.258464 0.347944
lowerneck -7.41954 -11.4836 -10.2917
upperneck 25.757 -17.4951 9.84285
head 11.389 -8.07883 2.94386
rclavicle 7.65321e-015 -5.36719e-015
rhumerus -52.5398 -40.2697 -52.013
rradius 22.2085
rwrist 54.0599
rhand 10.1972 -31.3062
rfingers 7.12502
rthumb 35.3134 -57.7885
lclavicle 7.65321e-015 -5.36719e-015
lhumerus -49.2238 30.4185 65.5223
lradius 21.331
lwrist -33.6403
lhand -17.493 -11.7531
lfingers 7.12502
lthumb 8.75966 18.0452
rfemur -4.28026 25.7955 21.0058
rtibia 1.5927
rfoot -11.4376 -25.9009
rtoes 0.651416
lfemur 6.92181 -47.9837 -15.8971
ltibia -4.31394
lfoot -36.797 58.2085
ltoes 22.8999
6
root -0.0122695 17.5206 8.192 8.84846 -2.91551 -6.59485
lowerback 0.564717 0.393024 2.79326
upperback -11.2788 0.894907 1.68847
thorax -12.4516 0.254819 0.17732
lowerneck -7.22994 -11.5184 -10.264
upperneck 26.019 -17.5773 9.73448
head 11.4481 -8.12841 2.89873
rclavicle 1.0138e-014 -3.75703e-014
rhumerus -53.084 -40.0856 -51.698
rradius 22.0983
rwrist 53.5182
rhand 10.2854 -31.6624
rfingers 7.12502
rthumb 35.397 -58.1248
lclavicle 1.0138e-014 -3.75703e-014
lhumerus -49.2264 29.3283 66.0847
lradius 21.3915
lwrist -33.0468
lhand -17.2488 -11.6065
lfingers 7.12502
lthumb 8.99531 18.1817
rfemur -4.25501 25.8076 21.1259
rtibia 1.40223
rfoot -11.4819 -26.0543
rtoes 2.45925
lfemur 6.7174 -48.0016 -15.6149
ltibia -4.34213
lfoot -36.447 58.2146
ltoes 22.612
7
root -0.0131501 17.5218 8.19734 8.92632 -2.8392 -6.62793
lowerback 0.608329 0.41574 2.86324
upperback -11.4341 0.934741 1.65398
thorax -12.6613 0.261913 0.0979459
lowerneck -7.14757 -11.5391 -10.2412
upperneck 26.167 -17.6179 9.65358
head 11.4829 -8.15384 2.86454
rclavicle 1.39149e-015 -1.31198e-014
rhumerus -53.4412 -40.0323 -51.4494
rradius 22.0351
rwrist 53.2935
rhand 10.2054 -31.7139
rfingers 7.12502
rthumb 35.3211 -58.1944
lclavicle 1.39149e-015 -1.31198e-014
lhumerus -49.2702 28.8227 66.3105
lradius 21.3866
lwrist -32.7619
lhand -17.307 -11.7768
lfingers 7.12502
lthumb 8.93912 18.0139
rfemur -4.259 25.6882 21.1517
rtibia 1.29848
rfoot -11.4115 -26.0322
rtoes 3.076
lfemur 6.63725 -48.0977 -15.5336
ltibia -4.31808
lfoot -36.597 58.1994
ltoes 22.6339
8
root -0.010905 17.5214 8.19626 8.94246 -2.83974 -6.62754
lowerback 0.639242 0.43114 2.88501
upperback -11.4582 0.958966 1.64775
thorax -12.7085 0.270368 0.076398
lowerneck -7.17813 -11.541 -10.2223
upperneck 26.1904 -17.6161 9.62497
head 11.4927 -8.15219 2.84979
rclavicle -3.57812e-015 3.97569e-014
rhumerus -53.6238 -40.1755 -51.2679
rradius 22.0432
rwrist 53.4379
rhand 10.113 -31.6689
rfingers 7.12502
rthumb 35.2335 -58.1701
lclavicle -3.57812e-015 3.97569e-014
lhumerus -49.2955 28.8168 66.2927
lradius 21.3966
lwrist -32.7184
lhand -17.357 -11.6889
lfingers 7.12502
lthumb 8.89082 18.1037
rfemur -4.2923 25.4896 21.1225
rtibia 1.29508
rfoot -11.3081 -25.841
rtoes 2.98916
lfemur 6.6527 -48.1585 -15.5772
ltibia -4.28867
lfoot -36.7462 58.2322
ltoes 22.6249
9
root -0.00866329 17.5211 8.1955 8.94833 -2.82661 -6.64688
lowerback 0.669618 0.43191 2.9385
upperback -11.4733 0.965775 1.64588
thorax -12.745 0.267468 0.0438406
lowerneck -7.21683 -11.5351 -10.1832
upperneck 26.2239 -17.5991 9.56982
head 11.5011 -8.14409 2.82455
rclavicle -1.12313e-014 -1.27222e-014
rhumerus -53.7427 -40.3178 -51.1276
rradius 22.041
rwrist 53.6016
rhand 10.1781 -31.7347
rfingers 7.12502
rthumb 35.2952 -58.2213
lclavicle -1.12313e-014 -1.27222e-014
lhumerus -49.3183 28.8212 66.2629
lradius 21.414
lwrist -32.6567
lhand -17.3204 -11.5616
lfingers 7.12502
lthumb 8.92614 18.2296
rfemur -4.30355 25.3132 21.1273
rtibia 1.28589
rfoot -11.2333 -25.6648
rtoes 3.10899
lfemur 6.65556 -48.1218 -15.5721
ltibia -4.28989
lfoot -36.5224 58.2674
ltoes 22.4146
